:SAMPLES-PER-SECOND 30
:FULLY-SPECIFIED
:DEGREES
61
root  34.6780762 36.49430162 -14.98315316 8.302789688 -6.743109703 3.802430868
lowerback  -7.060229778 -1.750120044 -1.112790346
upperback  -4.158939838 -1.856729984 -2.955840111
thorax  -0.395976007 -0.7728490233 -2.542949915
lowerneck  -0.9152889848 -17.02009964 -12.79339981
upperneck  6.76128006 -23.31060028 11.44589996
head  5.000299931 -11.43799973 3.812849998
lclavicle  0 -4.497500157e-015 -2.743230041e-014
lhumerus  -50.11940002 27.54940033 64.55680084
lradius  5.228657756e-007 -6.507048965e-006 30.98679924
lwrist  4.824992743e-007 -3.790274832e-007 -26.42410088
lhand  -4.411182526e-031 -36.8227005 -10.74269962
lfingers  90 7.125020027 -90
lthumb  94.79417546 -25.58008613 100.9925763
rclavicle  0 -4.497500157e-015 -2.743230041e-014
rhumerus  -58.91579819 -22.9762001 -49.43650055
rradius  -5.16745672e-007 2.214343908e-008 87.01159668
rwrist  -0.0001064338358 0.02438926138 -170.4949951
rhand  -1.765616039e-031 0.4461149871 -8.024479866
rfingers  -90 -7.125020027 -90
rthumb  -86.14343456 -7.845599587 -63.7178454
rfemur  -12.98365211 16.98638535 12.91799259
rtibia  -1.615717053 -1.371960044 21.68915749
rfoot  -0.03417338803 -22.6251049 -35.73805618
rtoes  4.091099114 19.59389524 -102.0398227
lfemur  -8.407327652 -16.66138268 -20.34284401
ltibia  2.222789288 -1.537383556 15.4396553
lfoot  1.075020313 -22.71465492 38.34337234
ltoes  -8.600494586 -18.12509759 -115.9277265
62
root  34.6772652 36.49582149 -14.9912331 8.259592056 -6.777322769 3.88233757
lowerback  -7.196451664 -1.747817755 -1.034602761
upperback  -4.140850067 -1.873829961 -2.929739952
thorax  -0.3044260144 -0.7730026245 -2.565609932
lowerneck  -0.7304660082 -17.09830093 -12.90779972
upperneck  6.512760162 -23.43049812 11.61240005
head  4.941969872 -11.50469971 3.88248992
lclavicle  0 -4.497500157e-015 -2.743230041e-014
lhumerus  -50.11830139 27.60239983 64.520401
lradius  5.228657756e-007 -6.507048965e-006 30.97258186
lwrist  4.824992743e-007 -3.790274832e-007 -26.44409943
lhand  -0 -36.86009979 -10.71850014
lfingers  90 7.125020027 -90
lthumb  94.80658361 -25.55498506 101.0303104
rclavicle  0 -4.497500157e-015 -2.743230041e-014
rhumerus  -58.79299927 -22.95249748 -48.5008049
rradius  -5.16745672e-007 2.214343908e-008 88.68489838
rwrist  -0.0001064338358 0.02448286302 -170.3079987
rhand  -1.765649418e-031 0.5684530139 -8.159930229
rfingers  -90 -7.125020027 -90
rthumb  -86.18038276 -7.731828717 -63.60709143
rfemur  -13.05299091 17.0106163 12.86862755
rtibia  -1.679014802 -1.385129094 21.87040329
rfoot  -0.1125510931 -22.65389633 -35.746315
rtoes  4.098838999 19.59233851 -102.0629035
lfemur  -8.32994175 -16.69586754 -20.47525215
ltibia  2.282213449 -1.613389969 15.33727741
lfoot  1.029316664 -22.52816963 38.31388474
ltoes  -8.55152249 -18.14764464 -115.7704016
63
root  34.67874902 36.50006272 -14.99333269 8.27616787 -6.863949776 3.896899939
lowerback  -7.205148697 -1.745422244 -1.03457582
upperback  -4.132900238 -1.865630031 -2.93144989
thorax  -0.2911610007 -0.7730129957 -2.567110062
lowerneck  -0.6211720109 -17.19569969 -12.99650002
upperneck  6.442379951 -23.5746994 11.69120026
head  4.940060139 -11.5795002 3.907730103
lclavicle  0 -4.497500157e-015 -2.743230041e-014
lhumerus  -50.11619949 27.58690071 64.48609924
lradius  5.228657756e-007 -6.507048965e-006 30.95680046
lwrist  4.824992743e-007 -3.790274832e-007 -26.44790077
lhand  -4.412895858e-031 -36.85240173 -10.75119972
lfingers  90 7.125020027 -90
lthumb  94.80989037 -25.58731236 101.025059
rclavicle  0 -4.497500157e-015 -2.743230041e-014
rhumerus  -58.73939896 -22.90810204 -47.50559616
rradius  -5.16745672e-007 2.214343908e-008 90.2213974
rwrist  -0.0001064338358 0.02457630076 -170.3820038
rhand  -1.765726548e-031 0.780978024 -8.086440086
rfingers  -90 -7.125020027 -90
rthumb  -86.10597484 -7.810948999 -63.39585669
rfemur  -13.10299969 17.06892967 12.83549976
rtibia  -1.693824768 -1.414719105 21.88547897
rfoot  -0.1216190681 -22.68169212 -35.74404526
rtoes  4.113641887 19.58935258 -102.1070516
lfemur  -8.380421638 -16.71380997 -20.4847126
ltibia  2.260056973 -1.666023493 15.38374519
lfoot  1.027837873 -22.44229507 38.34770966
ltoes  -8.578738033 -18.13513428 -115.8578093
64
root  34.67812726 36.49930579 -14.99300979 8.27451992 -6.951976299 3.912739992
lowerback  -7.208799839 -1.745350003 -1.004430175
upperback  -4.140190125 -1.852890015 -2.949379921
thorax  -0.2978880107 -0.7737369537 -2.601320028
lowerneck  -0.4776329994 -17.29759979 -13.07499981
upperneck  6.359350204 -23.72909927 11.79059982
head  4.93170023 -11.65950012 3.939769983
lclavicle  0 -4.497500157e-015 -2.743230041e-014
lhumerus  -50.13489914 27.54840088 64.4382019
lradius  5.228657756e-007 -6.507048965e-006 30.97430038
lwrist  4.824992743e-007 -3.790274832e-007 -26.46610069
lhand  -4.412849614e-031 -36.85160065 -10.81070042
lfingers  90 7.125020027 -90
lthumb  94.82212964 -25.64578068 101.0296317
rclavicle  0 -4.497500157e-015 -2.743230041e-014
rhumerus  -58.61629868 -22.82939911 -46.51739883
rradius  -5.16745672e-007 2.214343908e-008 92.06790161
rwrist  -0.0001064338358 0.0246695783 -169.9290009
rhand  -1.765779766e-031 0.8987749815 -7.985960007
rfingers  -90 -7.125020027 -90
rthumb  -86.03725488 -7.908136536 -63.27498107
rfemur  -13.09656239 17.07821655 12.80721951
rtibia  -1.694898367 -1.470719576 21.85702705
rfoot  -0.0991865322 -22.76939201 -35.66960526
rtoes  4.143878705 19.58321831 -102.1972499
lfemur  -8.343047142 -16.67402077 -20.53182411
ltibia  2.29333663 -1.681675076 15.34532642
lfoot  1.046233058 -22.40264893 38.39518738
ltoes  -8.616026495 -18.117913 -115.977663
65
root  34.68018479 36.49611586 -14.99576569 8.303723335 -7.032197475 3.914105892
lowerback  -7.220759869 -1.750730038 -1.019729853
upperback  -4.128650188 -1.858919978 -2.957070112
thorax  -0.2793369889 -0.7760310173 -2.601569891
lowerneck  -0.2986089885 -17.38689995 -13.1427002
upperneck  6.189559937 -23.86400032 11.89169979
head  4.887730122 -11.73340034 3.980560064
lclavicle  0 -4.497500157e-015 -2.743230041e-014
lhumerus  -50.15269852 27.54599953 64.38990021
lradius  5.228657756e-007 -6.507048965e-006 30.99029732
lwrist  4.824992743e-007 -3.790274832e-007 -26.56409836
lhand  -4.413230632e-031 -36.85820007 -10.81849957
lfingers  90 7.125020027 -90
lthumb  94.82693507 -25.65318713 101.0375053
rclavicle  0 -4.497500157e-015 -2.743230041e-014
rhumerus  -58.52479935 -22.85209846 -45.4485054
rradius  -5.16745672e-007 2.214343908e-008 93.58570099
rwrist  -0.0001064338358 0.02476270683 -169.7859955
rhand  -1.765728154e-031 0.784792006 -8.021730423
rfingers  -90 -7.125020027 -90
rthumb  -86.07594373 -7.869080911 -63.38810308
rfemur  -13.14846802 17.1028595 12.78754997
rtibia  -1.702820778 -1.512850165 21.85476685
rfoot  -0.1006965116 -22.82995033 -35.64415359
rtoes  4.168925182 19.57810131 -102.2719857
lfemur  -8.441706657 -16.6335907 -20.5038662
ltibia  2.244035721 -1.689781547 15.4453001
lfoot  1.074186087 -22.44433022 38.43240738
ltoes  -8.610946678 -18.12026455 -115.9613288
66
root  34.68104986 36.4942806 -15.00484887 8.366153717 -7.169195652 3.91656518
lowerback  -7.244540215 -1.757570028 -1.013400435
upperback  -4.090909958 -1.868520021 -2.986069918
thorax  -0.2288440019 -0.7819650173 -2.636950016
lowerneck  -0.2041299939 -17.46360016 -13.1093998
upperneck  6.082320213 -23.97330093 11.9222002
head  4.852749825 -11.79049969 3.984189987
lclavicle  0 -4.497500157e-015 -2.743230041e-014
lhumerus  -50.16400146 27.46020126 64.31929779
lradius  5.228657756e-007 -6.507048965e-006 31.05120277
lwrist  4.824992743e-007 -3.790274832e-007 -26.53899956
lhand  -0 -36.86589813 -10.80770016
lfingers  90 7.125020027 -90
lthumb  94.82822596 -25.64226209 101.0446758
rclavicle  0 -4.497500157e-015 -2.743230041e-014
rhumerus  -58.3852005 -22.85169983 -44.44380188
rradius  -5.16745672e-007 2.214343908e-008 95.16100311
rwrist  -0.0001064338358 0.02485569008 -170.0769958
rhand  -1.765813425e-031 0.9658859968 -8.196749687
rfingers  -90 -7.125020027 -90
rthumb  -86.11983146 -7.724166802 -63.22275688
rfemur  -13.25479507 17.15916443 12.74458313
rtibia  -1.711866498 -1.544440746 21.86309242
rfoot  -0.08915365487 -22.84594154 -35.5798912
rtoes  4.169776629 19.57792679 -102.2745266
lfemur  -8.620147705 -16.72603798 -20.44319725
ltibia  2.156513453 -1.76772213 15.60511971
lfoot  1.099983573 -22.34598923 38.56767654
ltoes  -8.602015632 -18.12439471 -115.932616
67
root  34.67960808 36.49280278 -15.00857496 8.320532799 -7.265842915 3.961134911
lowerback  -7.325469971 -1.768630028 -0.9493749738
upperback  -4.10269022 -1.881890059 -3.006570101
thorax  -0.1998559982 -0.7886009812 -2.69727993
lowerneck  -0.02353869937 -17.54409981 -13.10540009
upperneck  5.912399769 -24.09469795 12.00399971
head  4.796360016 -11.85680008 4.014249802
lclavicle  0 -4.497500157e-015 -2.743230041e-014
lhumerus  -50.16019821 27.38209915 64.24960327
lradius  5.228657756e-007 -6.507048965e-006 31.06570244
lwrist  4.824992743e-007 -3.790274832e-007 -26.47380066
lhand  -4.41407394e-031 -36.87279892 -10.85480022
lfingers  90 7.125020027 -90
lthumb  94.84152547 -25.68831899 101.0564351
rclavicle  0 -4.497500157e-015 -2.743230041e-014
rhumerus  -58.21060562 -22.83520126 -43.32359695
rradius  -5.16745672e-007 2.214343908e-008 96.6588974
rwrist  -0.0001064338358 0.0249485299 -170.5420074
rhand  -1.765919917e-031 1.152750015 -8.096119881
rfingers  -90 -7.125020027 -90
rthumb  -86.03717538 -7.825939609 -63.03483264
rfemur  -13.26068497 17.16743088 12.71247959
rtibia  -1.737323642 -1.580086946 21.92937469
rfoot  -0.1092972979 -22.91919708 -35.52142334
rtoes  4.170024923 19.57787589 -102.2752676
lfemur  -8.544722557 -16.75385284 -20.5265007
ltibia  2.194982529 -1.834372878 15.54491615
lfoot  1.086820722 -22.19133186 38.61590958
ltoes  -8.569668633 -18.13930878 -115.8286748
